<svg width="195" height="413" viewBox="0 0 195 413" fill="none" xmlns="http://www.w3.org/2000/svg">
<rect x="1" y="1" width="193" height="412" rx="27" fill="white"/>
<path d="M1 385.457L1.0042 385.915L1.0162 386.373L1.03599 386.831L1.06358 387.288L1.09897 387.745L1.14276 388.201L1.19434 388.656L1.25372 389.11L1.3209 389.564L1.39588 390.016L1.47925 390.467L1.56983 390.915L1.6682 391.363L1.77437 391.809L1.88833 392.253L2.0101 392.694L2.13906 393.134L2.27582 393.572L2.42037 394.007L2.57273 394.439L2.73168 394.869L2.89843 395.296L3.07297 395.72L3.25412 396.141L3.44306 396.559L3.6392 396.973L3.84254 397.384L4.05248 397.792L4.26961 398.195L4.49394 398.596L4.72547 398.992L4.963 399.384L5.20773 399.772L5.45965 400.155L5.71757 400.535L5.98209 400.909L6.25321 401.28L6.53033 401.645L6.81404 402.006L7.10435 402.362L7.40006 402.712L7.70237 403.058L8.01008 403.398L8.32379 403.733L8.64349 404.063L8.96919 404.386L9.29969 404.705L9.63619 405.018L9.97748 405.324L10.3248 405.625L10.6769 405.92L11.0338 406.209L11.3961 406.492L11.7631 406.768L12.1344 407.038L12.5111 407.301L12.892 407.558L13.2771 407.808L13.6664 408.052L14.0604 408.289L14.4581 408.519L14.8594 408.743L15.2649 408.959L15.674 409.169L16.0866 409.371L16.5029 409.567L16.9228 409.754L17.3451 409.935L17.7709 410.109L18.1998 410.275L18.6311 410.434L19.0653 410.585L19.502 410.729L19.9411 410.865L20.3825 410.994L20.8264 411.115L21.2721 411.229L21.7195 411.334L22.1688 411.432L22.6199 411.523L23.0727 411.605L23.5262 411.68L23.9814 411.747L24.4373 411.806L24.8944 411.858L25.3526 411.901L25.8109 411.937L26.2704 411.964L26.7298 411.984L27.1899 411.996L27.6499 412H167.35L167.81 411.996L168.27 411.984L168.73 411.964L169.189 411.937L169.647 411.901L170.106 411.858L170.563 411.806L171.019 411.747L171.474 411.68L171.928 411.605L172.38 411.523L172.831 411.432L173.28 411.334L173.728 411.229L174.174 411.115L174.617 410.994L175.059 410.865L175.498 410.729L175.935 410.585L176.369 410.434L176.8 410.275L177.229 410.109L177.655 409.935L178.078 409.754L178.497 409.567L178.913 409.371L179.326 409.169L179.735 408.959L180.141 408.743L180.542 408.519L180.94 408.289L181.334 408.052L181.723 407.808L182.108 407.558L182.489 407.301L182.866 407.038L183.237 406.768L183.604 406.492L183.966 406.209L184.323 405.92L184.675 405.625L185.023 405.324L185.364 405.018L185.7 404.705L186.031 404.386L186.357 404.063L186.676 403.733L186.99 403.398L187.298 403.058L187.6 402.712L187.896 402.362L188.186 402.006L188.47 401.645L188.747 401.28L189.018 400.909L189.282 400.535L189.54 400.155L189.792 399.772L190.037 399.384L190.275 398.992L190.506 398.596L190.73 398.195L190.948 397.792L191.157 397.384L191.361 396.973L191.557 396.559L191.746 396.141L191.927 395.72L192.102 395.296L192.268 394.869L192.428 394.439L192.58 394.007L192.724 393.572L192.861 393.134L192.99 392.694L193.112 392.253L193.226 391.809L193.332 391.363L193.43 390.915L193.521 390.467L193.604 390.016L193.679 389.564L193.746 389.11L193.806 388.656L193.857 388.201L193.901 387.745L193.936 387.288L193.965 386.831L193.984 386.373L193.996 385.915L194 385.457V27.5434L193.996 27.0852L193.984 26.6269L193.965 26.1693L193.936 25.7117L193.901 25.2553L193.857 24.7988L193.806 24.3436L193.746 23.8896L193.679 23.4361L193.604 22.9845L193.521 22.5334L193.43 22.0842L193.332 21.6367L193.226 21.191L193.112 20.7471L192.99 20.305L192.861 19.8653L192.724 19.428L192.58 18.9931L192.428 18.5606L192.268 18.131L192.102 17.7039L191.927 17.2797L191.746 16.8591L191.557 16.4409L191.361 16.0263L191.157 15.6153L190.948 15.2078L190.73 14.804L190.506 14.4043L190.275 14.0082L190.037 13.6157L189.792 13.228L189.54 12.8445L189.282 12.4651L189.018 12.0899L188.747 11.7201L188.47 11.3545L188.186 10.9936L187.896 10.6382L187.6 10.2875L187.298 9.94159L186.99 9.60166L186.676 9.2665L186.357 8.93733L186.031 8.61293L185.7 8.2945L185.364 7.98205L185.023 7.67557L184.675 7.37447L184.323 7.07995L183.966 6.79079L183.604 6.50821L183.237 6.23221L182.866 5.96217L182.489 5.69871L182.108 5.44182L181.723 5.1909L181.334 4.94716L180.94 4.71058L180.542 4.47997L180.141 4.25654L179.735 4.04027L179.326 3.83118L178.913 3.62865L178.497 3.43329L178.078 3.24511L177.655 3.06468L177.229 2.89084L176.8 2.72475L176.369 2.56644L175.935 2.41469L175.498 2.27071L175.059 2.1345L174.617 2.00606L174.174 1.88478L173.728 1.77127L173.28 1.66553L172.831 1.56755L172.38 1.47734L171.928 1.3943L171.474 1.31962L171.019 1.25271L170.563 1.19356L170.106 1.14219L169.647 1.09857L169.189 1.06333L168.73 1.03585L168.27 1.01613L167.81 1.00418L167.35 1H27.6499L27.1899 1.00418L26.7298 1.01613L26.2704 1.03585L25.8109 1.06333L25.3526 1.09857L24.8944 1.14219L24.4373 1.19356L23.9814 1.25271L23.5262 1.31962L23.0727 1.3943L22.6199 1.47734L22.1688 1.56755L21.7195 1.66553L21.2721 1.77127L20.8264 1.88478L20.3825 2.00606L19.9411 2.1345L19.502 2.27071L19.0653 2.41469L18.6311 2.56644L18.1998 2.72475L17.7709 2.89084L17.3451 3.06468L16.9228 3.24511L16.5029 3.43329L16.0866 3.62865L15.674 3.83118L15.2649 4.04027L14.8594 4.25654L14.4581 4.47997L14.0604 4.71058L13.6664 4.94716L13.2771 5.1909L12.892 5.44182L12.5111 5.69871L12.1344 5.96217L11.7631 6.23221L11.3961 6.50821L11.0338 6.79079L10.6769 7.07995L10.3248 7.37447L9.97748 7.67557L9.63619 7.98205L9.29969 8.2945L8.96919 8.61293L8.64349 8.93733L8.32379 9.2665L8.01008 9.60166L7.70237 9.94159L7.40006 10.2875L7.10435 10.6382L6.81404 10.9936L6.53033 11.3545L6.25321 11.7201L5.98209 12.0899L5.71757 12.4651L5.45965 12.8445L5.20773 13.228L4.963 13.6157L4.72547 14.0082L4.49394 14.4043L4.26961 14.804L4.05248 15.2078L3.84254 15.6153L3.6392 16.0263L3.44306 16.4409L3.25412 16.8591L3.07297 17.2797L2.89843 17.7039L2.73168 18.131L2.57273 18.5606L2.42037 18.9931L2.27582 19.428L2.13906 19.8653L2.0101 20.305L1.88833 20.7471L1.77437 21.191L1.6682 21.6367L1.56983 22.0842L1.47925 22.5334L1.39588 22.9845L1.3209 23.4361L1.25372 23.8896L1.19434 24.3436L1.14276 24.7988L1.09897 25.2553L1.06358 25.7117L1.03599 26.1693L1.0162 26.6269L1.0042 27.0852L1 27.5434V385.457Z" stroke="black" stroke-width="1.5" stroke-miterlimit="10" stroke-linecap="round" stroke-linejoin="round"/>
<mask id="mask0_2_94" style="mask-type:alpha" maskUnits="userSpaceOnUse" x="9" y="26" width="177" height="376">
<path d="M24.2976 402L24.1287 401.999L23.9586 401.996L23.7873 401.991L23.616 401.984L23.4436 401.976L23.2711 401.965L23.0974 401.952L22.9232 401.938L22.7489 401.92L22.5735 401.902L22.398 401.881L22.222 401.858L22.0454 401.832L21.8687 401.804L21.6915 401.775L21.5143 401.743L21.3364 401.709L21.1586 401.672L20.9808 401.634L20.8024 401.592L20.624 401.549L20.4455 401.504L20.2671 401.456L20.0887 401.406L19.9103 401.353L19.7319 401.298L19.554 401.241L19.3756 401.181L19.1984 401.119L19.0206 401.055L18.8433 400.988L18.6667 400.919L18.4907 400.847L18.3146 400.774L18.1392 400.697L17.9643 400.619L17.7901 400.537L17.6164 400.454L17.4439 400.368L17.2715 400.28L17.1002 400.19L16.9295 400.097L16.76 400.001L16.5917 399.904L16.4234 399.804L16.2569 399.702L16.0915 399.597L15.9268 399.491L15.7632 399.382L15.6009 399.271L15.4403 399.157L15.2803 399.041L15.1221 398.923L14.9651 398.803L14.8099 398.681L14.6559 398.557L14.503 398.431L14.352 398.302L14.2027 398.172L14.0546 398.04L13.9089 397.905L13.7644 397.769L13.6216 397.631L13.4807 397.491L13.3415 397.35L13.2041 397.206L13.0691 397.06L12.9353 396.913L12.8039 396.765L12.6742 396.614L12.547 396.463L12.4215 396.309L12.2978 396.154L12.1764 395.997L12.0575 395.84L11.9403 395.68L11.8256 395.519L11.7126 395.357L11.6019 395.195L11.4937 395.03L11.3878 394.864L11.2838 394.698L11.1821 394.53L11.0827 394.361L10.9858 394.191L10.8912 394.02L10.7991 393.849L10.7092 393.676L10.6212 393.503L10.5362 393.329L10.4529 393.154L10.3726 392.98L10.2947 392.804L10.2186 392.627L10.1454 392.45L10.0741 392.273L10.0057 392.095L9.93908 391.917L9.87485 391.738L9.81359 391.559L9.75412 391.38L9.69762 391.201L9.6429 391.022L9.59057 390.842L9.54061 390.663L9.49303 390.483L9.44783 390.303L9.40501 390.124L9.36397 389.944L9.32532 389.765L9.28963 389.587L9.25514 389.408L9.22362 389.229L9.19388 389.051L9.16653 388.873L9.14155 388.695L9.11835 388.518L9.09754 388.341L9.0785 388.165L9.06185 387.989L9.04698 387.815L9.0345 387.64L9.02379 387.466L9.01546 387.293L9.00833 387.12L9.00357 386.948L9.00119 386.777L9 386.606V41.3931L9.00119 41.2225L9.00357 41.0514L9.00833 40.8796L9.01546 40.7073L9.02379 40.5337L9.0345 40.3596L9.04698 40.1855L9.06185 40.0101L9.0785 39.8342L9.09754 39.6582L9.11835 39.4817L9.14155 39.3045L9.16653 39.1268L9.19388 38.9491L9.22362 38.7707L9.25514 38.5924L9.28963 38.4135L9.32532 38.2345L9.36397 38.055L9.40501 37.8761L9.44783 37.6965L9.49303 37.517L9.54061 37.3375L9.59057 37.1579L9.6429 36.9784L9.69762 36.7989L9.75412 36.6193L9.81359 36.4404L9.87485 36.2615L9.93908 36.0831L10.0057 35.9048L10.0741 35.7271L10.1454 35.5499L10.2186 35.3728L10.2947 35.1962L10.3726 35.0203L10.4529 34.845L10.5362 34.6702L10.6212 34.4967L10.7092 34.3231L10.7991 34.1508L10.8912 33.979L10.9858 33.8085L11.0827 33.6385L11.1821 33.4697L11.2838 33.3022L11.3878 33.1352L11.4937 32.97L11.6019 32.8055L11.7126 32.6421L11.8256 32.4805L11.9403 32.3195L12.0575 32.1604L12.1764 32.0024L12.2978 31.8462L12.4215 31.6912L12.547 31.5374L12.6742 31.3854L12.8039 31.2352L12.9353 31.0862L13.0691 30.9395L13.2041 30.7941L13.3415 30.6505L13.4807 30.5087L13.6216 30.3686L13.7644 30.2304L13.9089 30.0939L14.0546 29.9599L14.2027 29.8276L14.352 29.6972L14.503 29.5691L14.6559 29.4428L14.8099 29.3184L14.9651 29.1963L15.1221 29.0766L15.2803 28.9587L15.4403 28.8426L15.6009 28.7295L15.7632 28.6182L15.9268 28.5093L16.0915 28.4021L16.2569 28.298L16.4234 28.1957L16.5917 28.0957L16.76 27.9982L16.9295 27.903L17.1002 27.8103L17.2715 27.7193L17.4439 27.6313L17.6164 27.5458L17.7901 27.462L17.9643 27.3812L18.1392 27.3022L18.3146 27.2262L18.4907 27.152L18.6667 27.0808L18.8433 27.0114L19.0206 26.9449L19.1984 26.8803L19.3756 26.8187L19.554 26.7588L19.7319 26.7014L19.9103 26.6469L20.0887 26.5942L20.2671 26.544L20.4455 26.4961L20.624 26.4506L20.8024 26.4069L20.9808 26.3662L21.1586 26.3273L21.3364 26.2908L21.5143 26.2567L21.6915 26.225L21.8687 26.1951L22.0454 26.1676L22.222 26.1424L22.398 26.1191L22.5735 26.0981L22.7489 26.079L22.9232 26.0622L23.0974 26.0473L23.2711 26.0347L23.4436 26.0239L23.616 26.015L23.7873 26.0084L23.9586 26.0036L24.1287 26.0006L24.2976 26H170.702L170.872 26.0006L171.042 26.0036L171.213 26.0084L171.385 26.015L171.556 26.0239L171.73 26.0347L171.903 26.0473L172.077 26.0622L172.252 26.079L172.427 26.0981L172.602 26.1191L172.778 26.1424L172.955 26.1676L173.131 26.1951L173.309 26.225L173.486 26.2567L173.664 26.2908L173.841 26.3273L174.02 26.3662L174.198 26.4069L174.376 26.4506L174.554 26.4961L174.733 26.544L174.912 26.5942L175.09 26.6469L175.268 26.7014L175.447 26.7588L175.624 26.8187L175.802 26.8803L175.979 26.9449L176.157 27.0114L176.333 27.0808L176.51 27.152L176.685 27.2262L176.861 27.3022L177.036 27.3812L177.21 27.462L177.384 27.5458L177.557 27.6313L177.729 27.7193L177.9 27.8103L178.07 27.903L178.24 27.9982L178.409 28.0957L178.577 28.1957L178.743 28.298L178.909 28.4021L179.073 28.5093L179.237 28.6182L179.399 28.7295L179.56 28.8426L179.72 28.9587L179.878 29.0766L180.035 29.1963L180.191 29.3184L180.345 29.4428L180.497 29.5691L180.648 29.6972L180.797 29.8276L180.945 29.9599L181.092 30.0939L181.236 30.2304L181.378 30.3686L181.519 30.5087L181.658 30.6505L181.796 30.7941L181.931 30.9395L182.065 31.0862L182.196 31.2352L182.326 31.3854L182.454 31.5374L182.579 31.6912L182.702 31.8462L182.824 32.0024L182.943 32.1604L183.06 32.3195L183.175 32.4805L183.287 32.6421L183.398 32.8055L183.506 32.97L183.613 33.1352L183.716 33.3022L183.818 33.4697L183.917 33.6385L184.014 33.8085L184.109 33.979L184.201 34.1508L184.291 34.3231L184.379 34.4967L184.464 34.6702L184.547 34.845L184.627 35.0203L184.706 35.1962L184.781 35.3728L184.855 35.5499L184.926 35.7271L184.995 35.9048L185.061 36.0831L185.125 36.2615L185.186 36.4404L185.246 36.6193L185.303 36.7989L185.358 36.9784L185.409 37.1579L185.459 37.3375L185.507 37.517L185.552 37.6965L185.596 37.8761L185.636 38.055L185.675 38.2345L185.711 38.4135L185.745 38.5924L185.776 38.7707L185.806 38.9491L185.833 39.1268L185.858 39.3045L185.882 39.4817L185.902 39.6582L185.921 39.8342L185.938 40.0101L185.953 40.1855L185.966 40.3596L185.976 40.5337L185.985 40.7073L185.992 40.8796L185.996 41.0514L185.999 41.2225L186 41.3931V386.606L185.999 386.777L185.996 386.948L185.992 387.12L185.985 387.293L185.976 387.466L185.966 387.64L185.953 387.815L185.938 387.989L185.921 388.165L185.902 388.341L185.882 388.518L185.858 388.695L185.833 388.873L185.806 389.051L185.776 389.229L185.745 389.408L185.711 389.587L185.675 389.765L185.636 389.944L185.596 390.124L185.552 390.303L185.507 390.483L185.459 390.663L185.409 390.842L185.358 391.022L185.303 391.201L185.246 391.38L185.186 391.559L185.125 391.738L185.061 391.917L184.995 392.095L184.926 392.273L184.855 392.45L184.781 392.627L184.706 392.804L184.627 392.98L184.547 393.154L184.464 393.329L184.379 393.503L184.291 393.676L184.201 393.849L184.109 394.02L184.014 394.191L183.917 394.361L183.818 394.53L183.716 394.698L183.613 394.864L183.506 395.03L183.398 395.195L183.287 395.357L183.175 395.519L183.06 395.68L182.943 395.84L182.824 395.997L182.702 396.154L182.579 396.309L182.454 396.463L182.326 396.614L182.196 396.765L182.065 396.913L181.931 397.06L181.796 397.206L181.658 397.35L181.519 397.491L181.378 397.631L181.236 397.769L181.092 397.905L180.945 398.04L180.797 398.172L180.648 398.302L180.497 398.431L180.345 398.557L180.191 398.681L180.035 398.803L179.878 398.923L179.72 399.041L179.56 399.157L179.399 399.271L179.237 399.382L179.073 399.491L178.909 399.597L178.743 399.702L178.577 399.804L178.409 399.904L178.24 400.001L178.07 400.097L177.9 400.19L177.729 400.28L177.557 400.368L177.384 400.454L177.21 400.537L177.036 400.619L176.861 400.697L176.685 400.774L176.51 400.847L176.333 400.919L176.157 400.988L175.979 401.055L175.802 401.119L175.624 401.181L175.447 401.241L175.268 401.298L175.09 401.353L174.912 401.406L174.733 401.456L174.554 401.504L174.376 401.549L174.198 401.592L174.02 401.634L173.841 401.672L173.664 401.709L173.486 401.743L173.309 401.775L173.131 401.804L172.955 401.832L172.778 401.858L172.602 401.881L172.427 401.902L172.252 401.92L172.077 401.938L171.903 401.952L171.73 401.965L171.556 401.976L171.385 401.984L171.213 401.991L171.042 401.996L170.872 401.999L170.702 402H24.2976Z" fill="#C4C4C4"/>
</mask>
<g mask="url(#mask0_2_94)">
<path d="M20 214L55 234.207V193.793L20 214ZM84 210.5H51.5V217.5H84V210.5Z" fill="black"/>
<path d="M175 214L140 234.207V193.793L175 214ZM111 210.5H143.5V217.5H111V210.5Z" fill="black"/>
<line x1="98.5" y1="25" x2="98.5" y2="401" stroke="black" stroke-dasharray="2 2"/>
</g>
<path d="M24.2976 401L24.1287 400.999L23.9586 400.996L23.7873 400.991L23.616 400.984L23.4436 400.976L23.2711 400.965L23.0974 400.952L22.9232 400.938L22.7489 400.921L22.5735 400.902L22.398 400.881L22.222 400.858L22.0454 400.832L21.8687 400.805L21.6915 400.776L21.5143 400.743L21.3364 400.709L21.1586 400.673L20.9808 400.635L20.8024 400.594L20.624 400.551L20.4455 400.505L20.2671 400.457L20.0887 400.407L19.9103 400.355L19.7319 400.3L19.554 400.243L19.3756 400.184L19.1984 400.121L19.0206 400.058L18.8433 399.991L18.6667 399.922L18.4907 399.85L18.3146 399.777L18.1392 399.701L17.9643 399.622L17.7901 399.541L17.6164 399.458L17.4439 399.372L17.2715 399.285L17.1002 399.195L16.9295 399.102L16.76 399.007L16.5917 398.909L16.4234 398.81L16.2569 398.708L16.0915 398.604L15.9268 398.497L15.7632 398.389L15.6009 398.278L15.4403 398.164L15.2803 398.049L15.1221 397.932L14.9651 397.812L14.8099 397.69L14.6559 397.566L14.503 397.44L14.352 397.312L14.2027 397.183L14.0546 397.05L13.9089 396.916L13.7644 396.78L13.6216 396.643L13.4807 396.503L13.3415 396.362L13.2041 396.219L13.0691 396.074L12.9353 395.927L12.8039 395.779L12.6742 395.628L12.547 395.477L12.4215 395.324L12.2978 395.169L12.1764 395.013L12.0575 394.856L11.9403 394.697L11.8256 394.537L11.7126 394.375L11.6019 394.213L11.4937 394.048L11.3878 393.883L11.2838 393.717L11.1821 393.55L11.0827 393.381L10.9858 393.212L10.8912 393.042L10.7991 392.871L10.7092 392.698L10.6212 392.526L10.5362 392.352L10.4529 392.178L10.3726 392.004L10.2947 391.828L10.2186 391.652L10.1454 391.475L10.0741 391.299L10.0057 391.121L9.93908 390.944L9.87485 390.765L9.81359 390.587L9.75412 390.408L9.69762 390.23L9.6429 390.051L9.59057 389.872L9.54061 389.693L9.49303 389.514L9.44783 389.335L9.40501 389.156L9.36397 388.976L9.32532 388.798L9.28963 388.62L9.25514 388.441L9.22362 388.263L9.19388 388.085L9.16653 387.908L9.14155 387.731L9.11835 387.554L9.09754 387.378L9.0785 387.202L9.06185 387.027L9.04698 386.852L9.0345 386.678L9.02379 386.504L9.01546 386.332L9.00833 386.159L9.00357 385.988L9.00119 385.817L9 385.647V41.3522L9.00119 41.1821L9.00357 41.0114L9.00833 40.8401L9.01546 40.6682L9.02379 40.4951L9.0345 40.3214L9.04698 40.1477L9.06185 39.9728L9.0785 39.7974L9.09754 39.6219L9.11835 39.4458L9.14155 39.2692L9.16653 39.0919L9.19388 38.9146L9.22362 38.7368L9.25514 38.5589L9.28963 38.3804L9.32532 38.202L9.36397 38.0229L9.40501 37.8445L9.44783 37.6654L9.49303 37.4864L9.54061 37.3073L9.59057 37.1283L9.6429 36.9492L9.69762 36.7701L9.75412 36.5911L9.81359 36.4126L9.87485 36.2342L9.93908 36.0563L10.0057 35.8785L10.0741 35.7012L10.1454 35.5245L10.2186 35.3479L10.2947 35.1718L10.3726 34.9963L10.4529 34.8214L10.5362 34.6472L10.6212 34.4741L10.7092 34.301L10.7991 34.1291L10.8912 33.9578L10.9858 33.7877L11.0827 33.6182L11.1821 33.4499L11.2838 33.2828L11.3878 33.1162L11.4937 32.9515L11.6019 32.7874L11.7126 32.6244L11.8256 32.4633L11.9403 32.3027L12.0575 32.144L12.1764 31.9864L12.2978 31.8306L12.4215 31.676L12.547 31.5226L12.6742 31.371L12.8039 31.2212L12.9353 31.0726L13.0691 30.9264L13.2041 30.7814L13.3415 30.6381L13.4807 30.4967L13.6216 30.357L13.7644 30.2191L13.9089 30.083L14.0546 29.9494L14.2027 29.8174L14.352 29.6873L14.503 29.5596L14.6559 29.4337L14.8099 29.3095L14.9651 29.1878L15.1221 29.0684L15.2803 28.9508L15.4403 28.835L15.6009 28.7222L15.7632 28.6112L15.9268 28.5026L16.0915 28.3958L16.2569 28.2919L16.4234 28.1898L16.5917 28.0902L16.76 27.9929L16.9295 27.898L17.1002 27.8055L17.2715 27.7147L17.4439 27.627L17.6164 27.5417L17.7901 27.4581L17.9643 27.3775L18.1392 27.2987L18.3146 27.2229L18.4907 27.1489L18.6667 27.0779L18.8433 27.0087L19.0206 26.9424L19.1984 26.878L19.3756 26.8165L19.554 26.7568L19.7319 26.6995L19.9103 26.6452L20.0887 26.5927L20.2671 26.5425L20.4455 26.4948L20.624 26.4494L20.8024 26.4059L20.9808 26.3653L21.1586 26.3265L21.3364 26.2901L21.5143 26.256L21.6915 26.2244L21.8687 26.1946L22.0454 26.1671L22.222 26.142L22.398 26.1188L22.5735 26.0979L22.7489 26.0788L22.9232 26.0621L23.0974 26.0472L23.2711 26.0346L23.4436 26.0239L23.616 26.0149L23.7873 26.0084L23.9586 26.0036L24.1287 26.0006L24.2976 26H170.702L170.872 26.0006L171.042 26.0036L171.213 26.0084L171.385 26.0149L171.556 26.0239L171.73 26.0346L171.903 26.0472L172.077 26.0621L172.252 26.0788L172.427 26.0979L172.602 26.1188L172.778 26.142L172.955 26.1671L173.131 26.1946L173.309 26.2244L173.486 26.256L173.664 26.2901L173.841 26.3265L174.02 26.3653L174.198 26.4059L174.376 26.4494L174.554 26.4948L174.733 26.5425L174.912 26.5927L175.09 26.6452L175.268 26.6995L175.447 26.7568L175.624 26.8165L175.802 26.878L175.979 26.9424L176.157 27.0087L176.333 27.0779L176.51 27.1489L176.685 27.2229L176.861 27.2987L177.036 27.3775L177.21 27.4581L177.384 27.5417L177.557 27.627L177.729 27.7147L177.9 27.8055L178.07 27.898L178.24 27.9929L178.409 28.0902L178.577 28.1898L178.743 28.2919L178.909 28.3958L179.073 28.5026L179.237 28.6112L179.399 28.7222L179.56 28.835L179.72 28.9508L179.878 29.0684L180.035 29.1878L180.191 29.3095L180.345 29.4337L180.497 29.5596L180.648 29.6873L180.797 29.8174L180.945 29.9494L181.092 30.083L181.236 30.2191L181.378 30.357L181.519 30.4967L181.658 30.6381L181.796 30.7814L181.931 30.9264L182.065 31.0726L182.196 31.2212L182.326 31.371L182.454 31.5226L182.579 31.676L182.702 31.8306L182.824 31.9864L182.943 32.144L183.06 32.3027L183.175 32.4633L183.287 32.6244L183.398 32.7874L183.506 32.9515L183.613 33.1162L183.716 33.2828L183.818 33.4499L183.917 33.6182L184.014 33.7877L184.109 33.9578L184.201 34.1291L184.291 34.301L184.379 34.4741L184.464 34.6472L184.547 34.8214L184.627 34.9963L184.706 35.1718L184.781 35.3479L184.855 35.5245L184.926 35.7012L184.995 35.8785L185.061 36.0563L185.125 36.2342L185.186 36.4126L185.246 36.5911L185.303 36.7701L185.358 36.9492L185.409 37.1283L185.459 37.3073L185.507 37.4864L185.552 37.6654L185.596 37.8445L185.636 38.0229L185.675 38.202L185.711 38.3804L185.745 38.5589L185.776 38.7368L185.806 38.9146L185.833 39.0919L185.858 39.2692L185.882 39.4458L185.902 39.6219L185.921 39.7974L185.938 39.9728L185.953 40.1477L185.966 40.3214L185.976 40.4951L185.985 40.6682L185.992 40.8401L185.996 41.0114L185.999 41.1821L186 41.3522V385.647L185.999 385.817L185.996 385.988L185.992 386.159L185.985 386.332L185.976 386.504L185.966 386.678L185.953 386.852L185.938 387.027L185.921 387.202L185.902 387.378L185.882 387.554L185.858 387.731L185.833 387.908L185.806 388.085L185.776 388.263L185.745 388.441L185.711 388.62L185.675 388.798L185.636 388.976L185.596 389.156L185.552 389.335L185.507 389.514L185.459 389.693L185.409 389.872L185.358 390.051L185.303 390.23L185.246 390.408L185.186 390.587L185.125 390.765L185.061 390.944L184.995 391.121L184.926 391.299L184.855 391.475L184.781 391.652L184.706 391.828L184.627 392.004L184.547 392.178L184.464 392.352L184.379 392.526L184.291 392.698L184.201 392.871L184.109 393.042L184.014 393.212L183.917 393.381L183.818 393.55L183.716 393.717L183.613 393.883L183.506 394.048L183.398 394.213L183.287 394.375L183.175 394.537L183.06 394.697L182.943 394.856L182.824 395.013L182.702 395.169L182.579 395.324L182.454 395.477L182.326 395.628L182.196 395.779L182.065 395.927L181.931 396.074L181.796 396.219L181.658 396.362L181.519 396.503L181.378 396.643L181.236 396.78L181.092 396.916L180.945 397.05L180.797 397.183L180.648 397.312L180.497 397.44L180.345 397.566L180.191 397.69L180.035 397.812L179.878 397.932L179.72 398.049L179.56 398.164L179.399 398.278L179.237 398.389L179.073 398.497L178.909 398.604L178.743 398.708L178.577 398.81L178.409 398.909L178.24 399.007L178.07 399.102L177.9 399.195L177.729 399.285L177.557 399.372L177.384 399.458L177.21 399.541L177.036 399.622L176.861 399.701L176.685 399.777L176.51 399.85L176.333 399.922L176.157 399.991L175.979 400.058L175.802 400.121L175.624 400.184L175.447 400.243L175.268 400.3L175.09 400.355L174.912 400.407L174.733 400.457L174.554 400.505L174.376 400.551L174.198 400.594L174.02 400.635L173.841 400.673L173.664 400.709L173.486 400.743L173.309 400.776L173.131 400.805L172.955 400.832L172.778 400.858L172.602 400.881L172.427 400.902L172.252 400.921L172.077 400.938L171.903 400.952L171.73 400.965L171.556 400.976L171.385 400.984L171.213 400.991L171.042 400.996L170.872 400.999L170.702 401H24.2976Z" stroke="black" stroke-width="1.5" stroke-miterlimit="10" stroke-linecap="round" stroke-linejoin="round"/>
<path d="M88.3436 20H88.3205L88.2974 19.9991L88.2742 19.9973L88.2511 19.9956L88.228 19.9929L88.2048 19.9894L88.1817 19.9859L88.1592 19.9815L88.136 19.9762L88.1129 19.9709L88.0903 19.9647L88.0672 19.9576L88.0447 19.9506L88.0221 19.9426L87.9996 19.9338L87.9776 19.925L87.9551 19.9152L87.9331 19.9047L87.9112 19.8941L87.8892 19.8826L87.8673 19.8702L87.8459 19.8579L87.824 19.8446L87.8026 19.8314L87.7819 19.8173L87.7605 19.8022L87.7398 19.7872L87.7196 19.7714L87.6988 19.7546L87.6787 19.7378L87.6585 19.721L87.6389 19.7025L87.6193 19.6848L87.5997 19.6654L87.5802 19.646L87.5612 19.6266L87.5428 19.6063L87.5244 19.5851L87.506 19.5639L87.4882 19.5418L87.4704 19.5197L87.4526 19.4977L87.4354 19.4738L87.4182 19.4509L87.4016 19.4271L87.3856 19.4023L87.369 19.3776L87.3536 19.352L87.3381 19.3264L87.3227 19.3008L87.3079 19.2743L87.2931 19.247L87.2788 19.2205L87.2646 19.1922L87.2509 19.1649L87.2379 19.1366L87.2248 19.1075L87.2124 19.0792L87.1999 19.0501L87.1881 19.0201L87.1762 18.9901L87.1649 18.9601L87.1536 18.93L87.143 18.8991L87.1329 18.8682L87.1234 18.8365L87.1139 18.8056L87.1044 18.7738L87.0955 18.742L87.0872 18.7093L87.0795 18.6776L87.0718 18.6449L87.0641 18.6122L87.0575 18.5787L87.051 18.546L87.0445 18.5125L87.0392 18.4789L87.0338 18.4454L87.0285 18.4118L87.0243 18.3774L87.0202 18.3438L87.016 18.3094L87.0125 18.2759L87.0095 18.2414L87.0071 18.207L87.0048 18.1726L87.003 18.1382L87.0018 18.1037L87.0006 18.0693L87 18.0349V18.0004V17.966L87.0006 17.9316L87.0018 17.8972L87.003 17.8627L87.0048 17.8283L87.0071 17.7939L87.0095 17.7594L87.0125 17.725L87.016 17.6906L87.0202 17.657L87.0243 17.6226L87.0285 17.5891L87.0338 17.5555L87.0392 17.522L87.0445 17.4884L87.051 17.4549L87.0575 17.4222L87.0641 17.3887L87.0718 17.356L87.0795 17.3233L87.0872 17.2915L87.0955 17.2589L87.1044 17.2271L87.1139 17.1953L87.1234 17.1635L87.1329 17.1326L87.143 17.1017L87.1536 17.0708L87.1649 17.0408L87.1762 17.0099L87.1881 16.9808L87.1999 16.9508L87.2124 16.9216L87.2248 16.8925L87.2379 16.8643L87.2509 16.836L87.2646 16.8078L87.2788 16.7804L87.2931 16.753L87.3079 16.7266L87.3227 16.7001L87.3381 16.6745L87.3536 16.6489L87.369 16.6233L87.3856 16.5985L87.4016 16.5738L87.4182 16.55L87.4354 16.5262L87.4526 16.5032L87.4704 16.4802L87.4882 16.4582L87.506 16.437L87.5244 16.4149L87.5428 16.3946L87.5612 16.3743L87.5802 16.354L87.5997 16.3346L87.6193 16.316L87.6389 16.2975L87.6585 16.2799L87.6787 16.2622L87.6988 16.2454L87.7196 16.2295L87.7398 16.2136L87.7605 16.1986L87.7819 16.1836L87.8026 16.1695L87.824 16.1563L87.8459 16.143L87.8673 16.1307L87.8892 16.1183L87.9112 16.1068L87.9331 16.0962L87.9551 16.0856L87.9776 16.0759L87.9996 16.0671L88.0221 16.0583L88.0447 16.0503L88.0672 16.0433L88.0903 16.0362L88.1129 16.03L88.136 16.0247L88.1592 16.0194L88.1817 16.015L88.2048 16.0106L88.228 16.0079L88.2511 16.0053L88.2742 16.0027L88.2974 16.0018L88.3205 16.0009L88.3436 16H106.656L106.679 16.0009L106.703 16.0018L106.726 16.0027L106.749 16.0053L106.772 16.0079L106.795 16.0106L106.818 16.015L106.841 16.0194L106.864 16.0247L106.887 16.03L106.91 16.0362L106.933 16.0433L106.955 16.0503L106.978 16.0583L107 16.0671L107.023 16.0759L107.045 16.0856L107.067 16.0962L107.089 16.1068L107.111 16.1183L107.133 16.1307L107.155 16.143L107.176 16.1563L107.197 16.1695L107.218 16.1836L107.239 16.1986L107.26 16.2136L107.281 16.2295L107.301 16.2454L107.321 16.2622L107.342 16.2799L107.361 16.2975L107.381 16.316L107.4 16.3346L107.42 16.354L107.439 16.3743L107.457 16.3946L107.476 16.4149L107.494 16.437L107.512 16.4582L107.53 16.4802L107.547 16.5032L107.565 16.5262L107.582 16.55L107.598 16.5738L107.614 16.5985L107.631 16.6233L107.646 16.6489L107.662 16.6745L107.677 16.7001L107.692 16.7266L107.707 16.753L107.721 16.7804L107.735 16.8078L107.749 16.836L107.762 16.8643L107.775 16.8925L107.788 16.9216L107.8 16.9508L107.813 16.9808L107.824 17.0099L107.835 17.0408L107.846 17.0708L107.857 17.1017L107.867 17.1326L107.877 17.1635L107.887 17.1953L107.896 17.2271L107.904 17.2589L107.913 17.2915L107.921 17.3233L107.929 17.356L107.936 17.3887L107.942 17.4222L107.949 17.4549L107.956 17.4884L107.961 17.522L107.966 17.5555L107.972 17.5891L107.976 17.6226L107.98 17.657L107.984 17.6906L107.988 17.725L107.991 17.7594L107.993 17.7939L107.995 17.8283L107.997 17.8627L107.998 17.8972L107.999 17.9316L108 17.966V18.0004V18.0349L107.999 18.0693L107.998 18.1037L107.997 18.1382L107.995 18.1726L107.993 18.207L107.991 18.2414L107.988 18.2759L107.984 18.3094L107.98 18.3438L107.976 18.3774L107.972 18.4118L107.966 18.4454L107.961 18.4789L107.956 18.5125L107.949 18.546L107.942 18.5787L107.936 18.6122L107.929 18.6449L107.921 18.6776L107.913 18.7093L107.904 18.742L107.896 18.7738L107.887 18.8056L107.877 18.8365L107.867 18.8682L107.857 18.8991L107.846 18.93L107.835 18.9601L107.824 18.9901L107.813 19.0201L107.8 19.0501L107.788 19.0792L107.775 19.1075L107.762 19.1366L107.749 19.1649L107.735 19.1922L107.721 19.2205L107.707 19.247L107.692 19.2743L107.677 19.3008L107.662 19.3264L107.646 19.352L107.631 19.3776L107.614 19.4023L107.598 19.4271L107.582 19.4509L107.565 19.4738L107.547 19.4977L107.53 19.5197L107.512 19.5418L107.494 19.5639L107.476 19.5851L107.457 19.6063L107.439 19.6266L107.42 19.646L107.4 19.6654L107.381 19.6848L107.361 19.7025L107.342 19.721L107.321 19.7378L107.301 19.7546L107.281 19.7714L107.26 19.7872L107.239 19.8022L107.218 19.8173L107.197 19.8314L107.176 19.8446L107.155 19.8579L107.133 19.8702L107.111 19.8826L107.089 19.8941L107.067 19.9047L107.045 19.9152L107.023 19.925L107 19.9338L106.978 19.9426L106.955 19.9506L106.933 19.9576L106.91 19.9647L106.887 19.9709L106.864 19.9762L106.841 19.9815L106.818 19.9859L106.795 19.9894L106.772 19.9929L106.749 19.9956L106.726 19.9973L106.703 19.9991L106.679 20H106.656H88.3436Z" stroke="black" stroke-width="1.5" stroke-miterlimit="10" stroke-linecap="round" stroke-linejoin="round"/>
<path d="M54 15L53.948 15.0007L53.896 15.002L53.8433 15.004L53.7913 15.0072L53.7392 15.0112L53.6872 15.0165L53.6352 15.0224L53.5838 15.029L53.5318 15.0369L53.4805 15.0454L53.4291 15.0547L53.3777 15.0652L53.327 15.0764L53.2763 15.0889L53.2256 15.1021L53.1756 15.1159L53.1255 15.1304L53.0755 15.1462L53.0261 15.1627L52.9767 15.1798L52.928 15.1982L52.8793 15.2173L52.8312 15.2371L52.7831 15.2582L52.7357 15.2799L52.6883 15.3023L52.6416 15.3253L52.5955 15.3497L52.5494 15.3741L52.5039 15.3997L52.4592 15.4261L52.4144 15.4537L52.3703 15.4814L52.3268 15.5104L52.2834 15.54L52.2412 15.5703L52.1991 15.6013L52.1576 15.6329L52.1168 15.6651L52.0759 15.6981L52.0364 15.7323L51.9976 15.7665L51.9587 15.8021L51.9205 15.8377L51.8837 15.8739L51.8468 15.9114L51.8106 15.949L51.7757 15.9878L51.7408 16.0267L51.7065 16.0662L51.6736 16.1064L51.6407 16.1472L51.6091 16.1887L51.5775 16.2302L51.5472 16.273L51.5176 16.3158L51.4886 16.3592L51.4603 16.4034L51.4333 16.4475L51.4063 16.4929L51.3806 16.5377L51.3556 16.5838L51.3312 16.6299L51.3082 16.6767L51.2851 16.7241L51.2634 16.7715L51.2423 16.8189L51.2226 16.867L51.2028 16.9157L51.1844 16.9644L51.1673 17.0138L51.1501 17.0632L51.1343 17.1133L51.1192 17.1627L51.1054 17.2134L51.0922 17.2641L51.0797 17.3148L51.0685 17.3655L51.0573 17.4169L51.0481 17.4676L51.0388 17.5196L51.0309 17.571L51.0244 17.623L51.0178 17.6744L51.0125 17.7264L51.0086 17.7784L51.0053 17.8304L51.0026 17.8831L51.0007 17.9351L51 17.9872L51.0007 18.0392L51.0013 18.0919L51.0039 18.1439L51.0066 18.1959L51.0105 18.2479L51.0151 18.3L51.0211 18.352L51.0277 18.404L51.0349 18.4554L51.0435 18.5068L51.0527 18.5581L51.0626 18.6095L51.0737 18.6609L51.0856 18.7116L51.0988 18.7623L51.1119 18.8123L51.1271 18.8624L51.1422 18.9124L51.1587 18.9618L51.1758 19.0112L51.1936 19.0606L51.2127 19.1093L51.2324 19.1574L51.2529 19.2055L51.2746 19.2529L51.2963 19.3003L51.3194 19.3471L51.3437 19.3938L51.3681 19.4399L51.3938 19.4854L51.4194 19.5301L51.4464 19.5749L51.4748 19.619L51.5031 19.6632L51.5327 19.706L51.5623 19.7488L51.5933 19.7909L51.6249 19.8324L51.6572 19.8739L51.6901 19.9141L51.7237 19.9542L51.7579 19.9937L51.7928 20.0319L51.829 20.0701L51.8652 20.1077L51.9021 20.1446L51.9396 20.1808L51.9778 20.2163L52.0167 20.2512L52.0562 20.2855L52.0964 20.3191L52.1372 20.3513L52.178 20.3836L52.2201 20.4152L52.2623 20.4455L52.3051 20.4758L52.3486 20.5048L52.392 20.5331L52.4368 20.5608L52.4816 20.5878L52.5263 20.6134L52.5724 20.6391L52.6185 20.6635L52.6653 20.6872L52.712 20.7096L52.7594 20.732L52.8069 20.753L52.8549 20.7735L52.9036 20.7926L52.9524 20.8117L53.0011 20.8294L53.0505 20.8459L53.1005 20.8624L53.1506 20.8775L53.2006 20.892L53.2513 20.9052L53.3014 20.9177L53.3527 20.9295L53.4034 20.9407L53.4548 20.9506L53.5061 20.9592L53.5582 20.9677L53.6095 20.975L53.6615 20.9809L53.7136 20.9868L53.7656 20.9914L53.8176 20.9947L53.8696 20.9974L53.9216 20.9993L53.9737 21H54.0263L54.0784 20.9993L54.1304 20.9974L54.1824 20.9947L54.2351 20.9914L54.2871 20.9868L54.3384 20.9809L54.3905 20.975L54.4425 20.9677L54.4939 20.9592L54.5452 20.9506L54.5966 20.9407L54.6473 20.9295L54.6986 20.9177L54.7493 20.9052L54.7994 20.892L54.8501 20.8775L54.8995 20.8624L54.9495 20.8459L54.9989 20.8294L55.0476 20.8117L55.0964 20.7926L55.1451 20.7735L55.1931 20.753L55.2406 20.732L55.288 20.7096L55.3354 20.6872L55.3815 20.6635L55.4276 20.6391L55.4737 20.6134L55.5191 20.5878L55.5639 20.5608L55.608 20.5331L55.6514 20.5048L55.6949 20.4758L55.7377 20.4455L55.7799 20.4152L55.822 20.3836L55.8628 20.3513L55.9036 20.3191L55.9438 20.2855L55.9833 20.2512L56.0222 20.2163L56.0604 20.1808L56.0979 20.1446L56.1348 20.1077L56.1716 20.0701L56.2072 20.0319L56.2421 19.9937L56.2763 19.9542L56.3099 19.9141L56.3428 19.8739L56.3751 19.8324L56.4067 19.7909L56.4377 19.7488L56.468 19.706L56.4969 19.6632L56.5259 19.619L56.5535 19.5749L56.5805 19.5301L56.6069 19.4854L56.6319 19.4399L56.6569 19.3938L56.6806 19.3471L56.7037 19.3003L56.7261 19.2529L56.7471 19.2055L56.7676 19.1574L56.7873 19.1093L56.8064 19.0606L56.8242 19.0112L56.8413 18.9618L56.8578 18.9124L56.8736 18.8624L56.8881 18.8123L56.9019 18.7623L56.9144 18.7116L56.9263 18.6609L56.9374 18.6095L56.9473 18.5581L56.9565 18.5068L56.9651 18.4554L56.9723 18.404L56.9789 18.352L56.9849 18.3L56.9895 18.2479L56.9934 18.1959L56.9967 18.1439L56.9987 18.0919L56.9993 18.0392L57 17.9872L56.9993 17.9351L56.9974 17.8831L56.9954 17.8304L56.9914 17.7784L56.9875 17.7264L56.9822 17.6744L56.9763 17.623L56.9691 17.571L56.9611 17.5196L56.9526 17.4676L56.9427 17.4169L56.9322 17.3655L56.9203 17.3148L56.9078 17.2641L56.8946 17.2134L56.8808 17.1627L56.8657 17.1133L56.8499 17.0632L56.8334 17.0138L56.8156 16.9644L56.7972 16.9157L56.7774 16.867L56.7577 16.8189L56.7366 16.7715L56.7149 16.7241L56.6925 16.6767L56.6688 16.6299L56.6444 16.5838L56.6194 16.5377L56.5937 16.4929L56.5667 16.4475L56.5397 16.4034L56.5114 16.3592L56.4824 16.3158L56.4528 16.273L56.4225 16.2302L56.3909 16.1887L56.3593 16.1472L56.3264 16.1064L56.2935 16.0662L56.2592 16.0267L56.225 15.9878L56.1894 15.949L56.1532 15.9114L56.1163 15.8739L56.0795 15.8377L56.0413 15.8021L56.0031 15.7665L55.9636 15.7323L55.9241 15.6981L55.8832 15.6651L55.8424 15.6329L55.8009 15.6013L55.7588 15.5703L55.7166 15.54L55.6732 15.5104L55.6297 15.4814L55.5856 15.4537L55.5415 15.4261L55.4961 15.3997L55.4506 15.3741L55.4045 15.3497L55.3584 15.3253L55.3117 15.3023L55.2643 15.2799L55.2169 15.2582L55.1694 15.2371L55.1207 15.2173L55.072 15.1982L55.0233 15.1798L54.9739 15.1627L54.9245 15.1462L54.8745 15.1304L54.8244 15.1159L54.7744 15.1021L54.7237 15.0889L54.673 15.0764L54.6223 15.0652L54.5709 15.0547L54.5195 15.0454L54.4682 15.0369L54.4162 15.029L54.3648 15.0224L54.3128 15.0165L54.2608 15.0112L54.2087 15.0072L54.1567 15.004L54.1047 15.002L54.052 15.0007L54 15Z" stroke="black" stroke-width="1.5" stroke-miterlimit="10" stroke-linecap="round" stroke-linejoin="round"/>
</svg>
